<?xml version="1.0" encoding="utf-8"?>
<!-- Generator: Adobe Illustrator 17.0.0, SVG Export Plug-In . SVG Version: 6.00 Build 0)  -->
<!DOCTYPE svg PUBLIC "-//W3C//DTD SVG 1.1//EN" "http://www.w3.org/Graphics/SVG/1.1/DTD/svg11.dtd">
<svg version="1.1" id="Layer_1" xmlns="http://www.w3.org/2000/svg" xmlns:xlink="http://www.w3.org/1999/xlink" x="0px" y="0px"
	 width="212px" height="56px" viewBox="0 0 212 56" enable-background="new 0 0 212 56" xml:space="preserve">
<g>
	<path fill="#FFFFFF" d="M70.119,10.62c0.207-0.575,0.437-1.058,0.69-1.449c0.483-0.736,1.104-1.23,1.864-1.484
		c0.46-0.161,0.966-0.242,1.518-0.242h18.737c1.058,0,1.736,0.276,2.035,0.829c0.114,0.23,0.173,0.472,0.173,0.724v0.138
		c0,0.461-0.195,1.185-0.587,2.175l-5.004,13.976c-0.161,0.437-0.38,0.851-0.655,1.242c-0.76,1.081-1.864,1.622-3.313,1.622H73.707
		l-1.795,5.245h-9.868L70.119,10.62z M75.985,9.034l-0.449,1.277h0.828c0.85,0,1.541,0.138,2.071,0.414
		c0.46,0.276,0.69,0.724,0.69,1.346c0,0.506-0.081,0.943-0.242,1.311l-4.59,13.043h3.175c1.84,0,3.163-0.712,3.968-2.139
		c0.276-0.575,0.622-1.461,1.035-2.657l3.244-9.042c0.298-0.828,0.449-1.438,0.449-1.829c0-0.92-0.564-1.472-1.691-1.657
		c-0.23-0.046-0.587-0.069-1.07-0.069L75.985,9.034L75.985,9.034z"/>
	<path fill="#FFFFFF" d="M102.453,7.446h17.875c1.242,0,2.082,0.185,2.519,0.553c0.368,0.299,0.552,0.737,0.552,1.311v0.035
		c0,0.461-0.138,1.035-0.414,1.726l-2.174,6.074c-0.53,1.219-1.3,2.048-2.312,2.484c-0.207,0.093-0.53,0.185-0.966,0.276
		c-0.437,0.092-1.128,0.138-2.07,0.138h-10.595l-2.243,6.522h2.381c0.85,0,1.415-0.046,1.691-0.138c0.437-0.114,0.771-0.23,1-0.345
		c0.92-0.46,1.564-1.173,1.932-2.139c0.23-0.506,0.494-1.208,0.793-2.104h8.385l-1.139,3.381c-0.115,0.276-0.276,0.587-0.483,0.931
		c-0.506,0.759-1.162,1.3-1.967,1.622c-0.621,0.254-1.518,0.38-2.692,0.38H95.171c-0.921,0-1.541-0.173-1.864-0.518
		c-0.276-0.276-0.414-0.621-0.414-1.035v-0.104c0-0.46,0.173-1.127,0.518-2.002l4.934-13.769c0.207-0.598,0.437-1.104,0.691-1.518
		c0.114-0.184,0.322-0.425,0.622-0.725C100.347,7.791,101.28,7.446,102.453,7.446z M104.247,9.034l-0.449,1.277h0.553
		c1.472,0,2.393,0.254,2.761,0.759c0.184,0.254,0.276,0.587,0.276,1c0,0.506-0.069,0.943-0.207,1.311l-1.76,5.072h3.313
		c1.311,0,2.381-0.425,3.21-1.277c0.345-0.368,0.586-0.725,0.725-1.07c0.207-0.437,0.437-1.047,0.69-1.829
		c0.483-1.265,0.793-2.162,0.931-2.692c0.092-0.345,0.138-0.622,0.138-0.829c0-0.781-0.403-1.299-1.208-1.553
		c-0.323-0.115-0.736-0.173-1.242-0.173h-7.73V9.034z"/>
	<path fill="#FFFFFF" d="M130.886,29.6c-0.023,0.161-0.035,0.322-0.035,0.483c0,0.781,0.403,1.299,1.208,1.553
		c0.345,0.092,0.713,0.138,1.104,0.138h0.449c1.587,0,2.6-0.379,3.037-1.139c0.184-0.299,0.472-1.059,0.862-2.277
		c0-0.024,0.356-1.07,1.07-3.14h-11.836c-0.898,0-1.496-0.08-1.795-0.242c-0.53-0.253-0.793-0.713-0.793-1.38
		c0-0.483,0.161-1.127,0.483-1.933l3.83-10.835c0.23-0.667,0.472-1.196,0.724-1.588c0.76-1.196,1.91-1.795,3.451-1.795h18.806
		c1.035,0,1.703,0.264,2.002,0.794c0.115,0.23,0.173,0.506,0.173,0.828c0,0.482-0.173,1.185-0.518,2.104l-6.902,19.566
		c-0.23,0.553-0.553,1.058-0.966,1.518c-0.737,0.759-1.726,1.139-2.968,1.139h-17.84c-1.357-0.023-2.243-0.242-2.657-0.656
		c-0.299-0.299-0.448-0.655-0.448-1.07v-0.242c0-0.392,0.184-1.093,0.552-2.105l0.207-0.449h9.006
		C130.956,29.289,130.886,29.531,130.886,29.6z M133.198,21.766c0,0.759,0.379,1.266,1.139,1.518
		c0.322,0.138,0.771,0.207,1.346,0.207h3.486l3.796-10.56c0.598-1.15,1.346-1.898,2.243-2.243c0.69-0.253,1.644-0.38,2.864-0.38
		l0.449-1.277h-7.764c-1.772,0-3.071,0.691-3.899,2.07c-0.231,0.461-0.483,1.093-0.76,1.897c-1.703,4.832-2.612,7.409-2.726,7.73
		C133.255,21.192,133.198,21.537,133.198,21.766z"/>
	<path fill="#FFFFFF" d="M172.64,28.151H154.8c-1.242,0-2.082-0.184-2.519-0.552c-0.368-0.299-0.553-0.725-0.553-1.277v-0.069
		c0-0.46,0.138-1.035,0.414-1.726l2.139-6.074c0.553-1.219,1.334-2.036,2.346-2.45c0.184-0.114,0.506-0.219,0.966-0.311
		c0.437-0.092,1.127-0.138,2.07-0.138h10.594l2.243-6.522h-2.382c-0.851,0-1.415,0.046-1.69,0.138
		c-0.438,0.115-0.772,0.231-1.001,0.345c-0.921,0.46-1.576,1.173-1.966,2.139c-0.207,0.506-0.461,1.208-0.76,2.105h-8.385
		l1.139-3.382c0.114-0.276,0.264-0.574,0.449-0.897c0.529-0.781,1.196-1.334,2.002-1.657c0.621-0.253,1.518-0.38,2.692-0.38h17.322
		c0.943,0,1.576,0.173,1.898,0.518c0.276,0.276,0.414,0.622,0.414,1.035v0.104c0,0.461-0.173,1.128-0.518,2.001l-4.935,13.769
		c-0.207,0.599-0.437,1.104-0.69,1.518c-0.138,0.184-0.345,0.426-0.622,0.725C174.756,27.805,173.813,28.151,172.64,28.151z
		 M170.881,26.563l0.448-1.277h-0.553c-1.472,0-2.393-0.253-2.761-0.759c-0.207-0.253-0.311-0.586-0.311-1
		c0-0.505,0.08-0.943,0.242-1.311l1.726-5.072h-3.279c-1.311,0-2.381,0.426-3.209,1.277c-0.345,0.368-0.586,0.725-0.725,1.07
		c-0.207,0.437-0.449,1.047-0.725,1.829c-0.46,1.265-0.771,2.163-0.931,2.692c-0.092,0.345-0.138,0.622-0.138,0.829
		c0,0.782,0.413,1.3,1.242,1.553c0.323,0.115,0.736,0.173,1.242,0.173h7.731V26.563z"/>
	<path fill="#FFFFFF" d="M194.484,13.244l-0.38,1c-0.254,0.737-0.241,1.3,0.035,1.691c0.276,0.392,0.966,0.575,2.07,0.553h7.523
		c1.909,0,3.071,0.345,3.486,1.035c0.114,0.185,0.173,0.38,0.173,0.587v0.069c0,0.254-0.127,0.725-0.38,1.415l-2.001,5.867
		c-0.138,0.345-0.334,0.702-0.586,1.071c-0.76,1.081-1.876,1.622-3.348,1.622H183.65c-1.289-0.023-2.128-0.126-2.519-0.311
		c-0.184-0.069-0.38-0.207-0.586-0.413c-0.254-0.299-0.38-0.632-0.38-1.001v-0.244c0-0.391,0.161-1.058,0.483-2.001l0.828-2.346
		h9.041c-0.46,1.358-0.713,2.139-0.759,2.346c-0.069,0.276-0.104,0.506-0.104,0.69c0,0.575,0.23,1,0.69,1.277
		c0.414,0.276,0.966,0.414,1.657,0.414h0.414c1.678,0,2.714-0.414,3.106-1.242c0.138-0.299,0.713-1.989,1.726-5.072
		c0.184-0.598,0.132-1.064-0.155-1.398c-0.288-0.333-1.018-0.488-2.191-0.466h-7.591c-1.979,0-3.187-0.311-3.623-0.931
		c-0.138-0.207-0.207-0.449-0.207-0.725c0-0.298,0.069-0.632,0.207-1l2.07-5.521c0.138-0.391,0.311-0.736,0.518-1.035
		c0.483-0.736,1.116-1.242,1.898-1.518c0.46-0.138,0.897-0.207,1.311-0.207h16.495c1.403,0,2.208,0.035,2.415,0.104
		c0.505,0.093,0.885,0.242,1.139,0.449c0.368,0.299,0.553,0.737,0.553,1.311c0,0.483-0.15,1.162-0.449,2.036l-0.931,2.416h-8.04
		l0.449-1.311c0.298-0.828,0.448-1.438,0.448-1.829c0-0.92-0.552-1.472-1.657-1.657c-0.207-0.046-0.553-0.069-1.035-0.069h-7.178
		l-0.449,1.277h0.793c0.828,0,1.496,0.138,2.002,0.414c0.46,0.276,0.69,0.725,0.69,1.346
		C194.725,12.439,194.644,12.876,194.484,13.244z"/>
</g>
<g>
	<path fill="#FFFFFF" d="M66.999,36.508c1.392,0,2.703,0.436,3.934,1.308c0.131,0.251,0.197,0.445,0.197,0.582v0.071
		c0,0.544-0.32,0.849-0.959,0.915h-0.116l-1.218-0.628c-0.753-0.239-1.366-0.358-1.837-0.358c-1.523,0-2.838,0.697-3.943,2.088
		c-0.555,0.932-0.834,1.84-0.834,2.724c0,1.78,0.837,3.193,2.509,4.239c0.735,0.383,1.469,0.573,2.204,0.573h0.099
		c0.938,0,1.914-0.317,2.93-0.95h0.314c0.567,0.125,0.851,0.418,0.851,0.878v0.099c0,0.61-0.822,1.159-2.465,1.649
		c-0.496,0.143-1.015,0.215-1.559,0.215h-0.171c-2.21,0-4.059-1.021-5.547-3.064c-0.704-1.189-1.058-2.401-1.058-3.638
		c0-2.324,1.058-4.215,3.172-5.672C64.639,36.851,65.803,36.508,66.999,36.508z"/>
	<path fill="#FFFFFF" d="M80.234,48.927c-0.843,0.657-1.771,0.986-2.787,0.986h-0.233c-1.482,0-2.767-0.722-3.853-2.169
		c-0.501-0.782-0.753-1.738-0.753-2.868v-3.683c0.072-0.681,0.398-1.021,0.977-1.021c0.579,0.149,0.869,0.43,0.869,0.843v3.593
		c0,1.434,0.398,2.39,1.192,2.867c0.514,0.395,1.081,0.592,1.703,0.592c1.189,0,2.088-0.616,2.697-1.846
		c0.125-0.401,0.188-0.803,0.188-1.21v-3.925c0.119-0.61,0.442-0.914,0.968-0.914c0.585,0.131,0.878,0.433,0.878,0.905v7.994
		c0,0.448-0.293,0.728-0.878,0.842h-0.09c-0.586-0.108-0.878-0.409-0.878-0.905L80.234,48.927L80.234,48.927z"/>
	<path fill="#FFFFFF" d="M87.492,40.182c1.255,0,2.401,0.478,3.441,1.434c0.102,0.185,0.152,0.355,0.152,0.511v0.062
		c-0.108,0.586-0.409,0.878-0.905,0.878h-0.036c-0.221,0-0.628-0.224-1.218-0.672c-0.442-0.227-0.887-0.34-1.335-0.34h-0.197
		c-1.189,0-2.091,0.628-2.706,1.882c-0.143,0.424-0.215,0.806-0.215,1.146c0,1.213,0.63,2.136,1.89,2.769
		c0.37,0.143,0.771,0.215,1.201,0.215c0.704,0,1.422-0.308,2.151-0.923l0.368-0.081h0.134c0.478,0,0.768,0.293,0.869,0.878v0.053
		c0,0.586-0.782,1.177-2.348,1.775c-0.514,0.096-0.896,0.143-1.147,0.143h-0.268c-1.314,0-2.533-0.616-3.656-1.846
		c-0.693-0.974-1.04-1.98-1.04-3.02c0-1.584,0.699-2.91,2.097-3.978C85.613,40.477,86.536,40.182,87.492,40.182z"/>
	<path fill="#FFFFFF" d="M96.435,40.191c1.87,0,3.322,0.887,4.355,2.662c0.358,0.699,0.538,1.454,0.538,2.267v0.197
		c-0.108,0.61-0.409,0.914-0.905,0.914h-6.712c0.173,0.592,0.66,1.102,1.46,1.532c0.472,0.179,0.914,0.268,1.326,0.268
		c0.478,0,1.052-0.168,1.721-0.502h0.287c0.561,0.108,0.843,0.401,0.843,0.878v0.099c0,0.704-0.887,1.174-2.662,1.407h-0.251
		c-1.744,0-3.142-0.815-4.194-2.446c-0.424-0.771-0.636-1.577-0.636-2.419c0-1.78,0.84-3.196,2.518-4.247
		C94.941,40.394,95.712,40.191,96.435,40.191z M93.549,44.384h5.869c0-0.221-0.248-0.666-0.744-1.335
		c-0.669-0.633-1.326-0.949-1.971-0.949h-0.367c-0.98,0-1.786,0.483-2.419,1.451C93.696,43.933,93.574,44.211,93.549,44.384z"/>
	<path fill="#FFFFFF" d="M103.613,40.136c0.585,0.15,0.878,0.43,0.878,0.843v0.143c0.741-0.657,1.706-0.986,2.894-0.986
		c0.639,0,1.332,0.161,2.079,0.483c0.257,0.263,0.385,0.517,0.385,0.762v0.063c-0.102,0.586-0.404,0.878-0.905,0.878h-0.081
		c-0.616-0.197-1.064-0.296-1.345-0.296h-0.197c-1.207,0-2.091,0.628-2.652,1.882c-0.119,0.329-0.179,0.711-0.179,1.147v3.978
		c0,0.483-0.299,0.776-0.896,0.878h-0.053c-0.49,0-0.792-0.305-0.905-0.914v-7.832C102.708,40.481,103.034,40.136,103.613,40.136z"
		/>
	<path fill="#FFFFFF" d="M114.868,40.191c1.87,0,3.322,0.887,4.355,2.662c0.358,0.699,0.538,1.454,0.538,2.267v0.197
		c-0.108,0.61-0.409,0.914-0.905,0.914h-6.712c0.174,0.592,0.66,1.102,1.46,1.532c0.472,0.179,0.914,0.268,1.326,0.268
		c0.478,0,1.051-0.168,1.721-0.502h0.286c0.561,0.108,0.843,0.401,0.843,0.878v0.099c0,0.704-0.887,1.174-2.662,1.407h-0.251
		c-1.744,0-3.142-0.815-4.193-2.446c-0.424-0.771-0.636-1.577-0.636-2.419c0-1.78,0.84-3.196,2.518-4.247
		C113.375,40.394,114.145,40.191,114.868,40.191z M111.983,44.384h5.87c0-0.221-0.249-0.666-0.744-1.335
		c-0.669-0.633-1.326-0.949-1.971-0.949h-0.368c-0.98,0-1.786,0.483-2.419,1.451C112.129,43.933,112.006,44.211,111.983,44.384z"/>
	<path fill="#FFFFFF" d="M126.49,46.714c-0.006-0.119-0.129-0.191-0.368-0.215c-3.023-0.675-4.636-1.106-4.838-1.291
		c-0.615-0.466-0.923-1.043-0.923-1.73c0-0.932,0.651-1.816,1.954-2.652c0.717-0.377,1.425-0.564,2.124-0.564
		c1.637,0,2.93,0.756,3.879,2.267l0.036,0.332v0.053c0,0.508-0.305,0.807-0.914,0.896c-0.406,0-0.782-0.287-1.129-0.86
		c-0.544-0.532-1.168-0.797-1.873-0.797c-0.921,0-1.64,0.43-2.16,1.291l-0.018,0.09c0,0.119,0.257,0.2,0.771,0.242
		c2.568,0.622,3.987,0.983,4.256,1.084c0.735,0.483,1.102,1.096,1.102,1.837v0.027c0,1.021-0.722,1.945-2.169,2.769
		c-0.628,0.281-1.288,0.421-1.98,0.421c-1.434,0-2.643-0.669-3.629-2.007c-0.125-0.179-0.187-0.352-0.187-0.52V47.19
		c0-0.483,0.329-0.762,0.986-0.834c0.317,0,0.69,0.308,1.12,0.923c0.526,0.49,1.142,0.735,1.846,0.735
		c0.837,0,1.529-0.392,2.079-1.174L126.49,46.714z"/>
	<path fill="#FFFFFF" d="M131.427,36.92h0.153c0.555,0.119,0.834,0.385,0.834,0.797v2.689h1.066l0.296-0.036
		c0.46,0,0.762,0.299,0.906,0.896c0,0.448-0.263,0.768-0.788,0.959l-0.538-0.037h-0.94v4.561c0,0.717,0.203,1.145,0.61,1.282
		l0.707,0.062h0.358c0.436,0,0.711,0.29,0.825,0.869v0.081c-0.102,0.579-0.401,0.869-0.896,0.869h-0.691
		c-1.159,0-2.02-0.627-2.581-1.882c-0.102-0.317-0.152-0.678-0.152-1.084v-4.759h-0.377l-0.573,0.037
		c-0.526-0.185-0.789-0.501-0.789-0.95c0.102-0.579,0.299-0.869,0.592-0.869v-0.062l0.619,0.062h0.529v-2.509
		C130.667,37.246,130.944,36.92,131.427,36.92z"/>
	<path fill="#FFFFFF" d="M139.878,40.191c1.87,0,3.321,0.887,4.355,2.662c0.358,0.699,0.538,1.454,0.538,2.267v0.197
		c-0.108,0.61-0.409,0.914-0.905,0.914h-6.711c0.173,0.592,0.66,1.102,1.46,1.532c0.472,0.179,0.914,0.268,1.326,0.268
		c0.478,0,1.052-0.168,1.721-0.502h0.287c0.561,0.108,0.843,0.401,0.843,0.878v0.099c0,0.704-0.887,1.174-2.661,1.407h-0.251
		c-1.744,0-3.142-0.815-4.194-2.446c-0.424-0.771-0.636-1.577-0.636-2.419c0-1.78,0.84-3.196,2.518-4.247
		C138.384,40.394,139.155,40.191,139.878,40.191z M136.993,44.384h5.87c0-0.221-0.248-0.666-0.744-1.335
		c-0.669-0.633-1.326-0.949-1.971-0.949h-0.367c-0.98,0-1.786,0.483-2.419,1.451C137.139,43.933,137.017,44.211,136.993,44.384z"/>
	<path fill="#FFFFFF" d="M154.574,40.254c1.248,0,2.378,0.472,3.387,1.416c0.962,1.009,1.442,2.148,1.442,3.414
		c0,1.81-0.854,3.232-2.563,4.265c-0.747,0.376-1.469,0.564-2.169,0.564h-0.268c-1.302,0-2.512-0.609-3.63-1.828
		c-0.687-0.968-1.03-1.968-1.03-3.002c0-1.571,0.693-2.885,2.079-3.943C152.707,40.549,153.624,40.254,154.574,40.254z
		 M151.617,44.985v0.162c0,1.117,0.541,1.983,1.622,2.599c0.383,0.197,0.794,0.296,1.236,0.296h0.197
		c1.153,0,2.037-0.601,2.652-1.802c0.137-0.37,0.206-0.735,0.206-1.093v-0.162c0-0.925-0.427-1.708-1.282-2.347
		c-0.495-0.34-1.067-0.511-1.712-0.511c-1.261,0-2.186,0.663-2.778,1.989C151.664,44.426,151.617,44.715,151.617,44.985z"/>
	<path fill="#FFFFFF" d="M161.563,40.136c0.585,0.15,0.878,0.43,0.878,0.843v0.143c0.741-0.657,1.706-0.986,2.894-0.986
		c0.639,0,1.332,0.161,2.079,0.483c0.257,0.263,0.386,0.517,0.386,0.762v0.063c-0.102,0.586-0.404,0.878-0.905,0.878h-0.081
		c-0.616-0.197-1.064-0.296-1.344-0.296h-0.197c-1.207,0-2.091,0.628-2.652,1.882c-0.119,0.329-0.18,0.711-0.18,1.147v3.978
		c0,0.483-0.299,0.776-0.896,0.878h-0.054c-0.49,0-0.791-0.305-0.906-0.914v-7.832C160.658,40.481,160.984,40.136,161.563,40.136z"
		/>
	<path fill="#FFFFFF" d="M175.857,48.892c-0.729,0.681-1.691,1.021-2.886,1.021h-0.259c-1.649,0-3.023-0.824-4.122-2.474
		c-0.401-0.8-0.601-1.604-0.601-2.41c0-1.805,0.884-3.235,2.653-4.292c0.753-0.352,1.488-0.529,2.204-0.529
		c1.834,0,3.286,0.896,4.355,2.689c0.329,0.735,0.492,1.491,0.492,2.267v3.88c0,0.478-0.293,0.768-0.878,0.869h-0.062
		c-0.406,0-0.707-0.239-0.905-0.716v-0.099L175.857,48.892z M169.834,44.994v0.099c0,1.224,0.616,2.145,1.846,2.761
		c0.382,0.143,0.726,0.215,1.03,0.215h0.259c1.015,0,1.855-0.511,2.518-1.532c0.239-0.478,0.358-0.935,0.358-1.371V45.03
		c0-1.177-0.582-2.079-1.747-2.706c-0.401-0.18-0.819-0.268-1.254-0.268h-0.036c-1.237,0-2.169,0.645-2.796,1.936
		C169.894,44.384,169.834,44.718,169.834,44.994z"/>
	<path fill="#FFFFFF" d="M185.068,46.714c-0.006-0.119-0.128-0.191-0.367-0.215c-3.023-0.675-4.636-1.106-4.839-1.291
		c-0.616-0.466-0.923-1.043-0.923-1.73c0-0.932,0.65-1.816,1.954-2.652c0.717-0.377,1.425-0.564,2.123-0.564
		c1.637,0,2.93,0.756,3.88,2.267l0.036,0.332v0.053c0,0.508-0.305,0.807-0.914,0.896c-0.406,0-0.782-0.287-1.129-0.86
		c-0.544-0.532-1.168-0.797-1.873-0.797c-0.92,0-1.64,0.43-2.16,1.291l-0.019,0.09c0,0.119,0.258,0.2,0.772,0.242
		c2.568,0.622,3.987,0.983,4.256,1.084c0.735,0.483,1.102,1.096,1.102,1.837v0.027c0,1.021-0.723,1.945-2.169,2.769
		c-0.628,0.281-1.288,0.421-1.981,0.421c-1.434,0-2.643-0.669-3.629-2.007c-0.125-0.179-0.188-0.352-0.188-0.52V47.19
		c0-0.483,0.329-0.762,0.986-0.834c0.317,0,0.691,0.308,1.12,0.923c0.526,0.49,1.141,0.735,1.846,0.735
		c0.837,0,1.529-0.392,2.079-1.174L185.068,46.714z"/>
	<path fill="#FFFFFF" d="M195.687,48.927c-0.843,0.657-1.771,0.986-2.787,0.986h-0.233c-1.481,0-2.766-0.722-3.853-2.169
		c-0.502-0.782-0.753-1.738-0.753-2.868v-3.683c0.071-0.681,0.397-1.021,0.977-1.021c0.579,0.149,0.869,0.43,0.869,0.843v3.593
		c0,1.434,0.398,2.39,1.192,2.867c0.514,0.395,1.081,0.592,1.703,0.592c1.189,0,2.088-0.616,2.697-1.846
		c0.125-0.401,0.188-0.803,0.188-1.21v-3.925c0.119-0.61,0.442-0.914,0.968-0.914c0.585,0.131,0.878,0.433,0.878,0.905v7.994
		c0,0.448-0.293,0.728-0.878,0.842h-0.09c-0.585-0.108-0.878-0.409-0.878-0.905L195.687,48.927L195.687,48.927z"/>
	<path fill="#FFFFFF" d="M199.504,36.589h0.161c0.567,0.119,0.851,0.389,0.851,0.806v10.664h0.439c0.436,0,0.717,0.296,0.843,0.887
		v0.071c-0.102,0.598-0.406,0.896-0.914,0.896h-1.308c-0.496,0-0.8-0.305-0.914-0.914V37.573
		C198.734,36.917,199.014,36.589,199.504,36.589z"/>
	<path fill="#FFFFFF" d="M204.432,47.529h0.09c0.782,0.113,1.174,0.479,1.174,1.093v0.197c0,0.567-0.365,0.931-1.093,1.093h-0.134
		c-0.622,0-1.009-0.397-1.165-1.192C203.465,47.927,203.841,47.529,204.432,47.529z M204.513,36.454h0.108
		c0.502,0,0.81,0.287,0.924,0.86v8.611c-0.143,0.592-0.473,0.887-0.986,0.887c-0.645-0.096-0.968-0.392-0.968-0.887v-8.647
		C203.703,36.729,204.011,36.454,204.513,36.454z"/>
</g>
<g>
	<path fill="#FFFFFF" d="M182.994,52.473c-0.668-0.113-1.001-0.441-1.001-0.985v-0.023c0-0.385,0.23-0.67,0.691-0.855
		c0.079-0.041,0.185-0.062,0.318-0.062h0.108c0.615,0.129,0.923,0.419,0.923,0.872l0.006,0.176l0.039,0.266v0.102
		c0,0.766-0.376,1.336-1.127,1.71c-0.162,0.106-0.304,0.159-0.424,0.159c-0.253,0-0.407-0.166-0.464-0.498
		c0-0.279,0.194-0.457,0.583-0.532C182.756,52.738,182.872,52.628,182.994,52.473z"/>
</g>
<g>
	<path fill="#FFFFFF" d="M124.171,52.561c-0.668-0.113-1.002-0.441-1.002-0.985v-0.023c0-0.385,0.23-0.669,0.691-0.854
		c0.079-0.041,0.185-0.062,0.317-0.062h0.108c0.616,0.128,0.923,0.419,0.923,0.872l0.006,0.176l0.039,0.266v0.102
		c0,0.766-0.375,1.336-1.126,1.71c-0.163,0.106-0.304,0.159-0.425,0.159c-0.253,0-0.407-0.166-0.464-0.498
		c0-0.279,0.194-0.457,0.583-0.532C123.933,52.826,124.05,52.716,124.171,52.561z"/>
</g>
<g>
	<path fill="#FFFFFF" d="M22.741,28.399c-0.062,0.015-0.127,0.025-0.186,0.047c-0.448,0.164-0.912,0.258-1.385,0.296
		c-0.241,0.02-0.48,0.011-0.711-0.072c-0.095-0.035-0.183-0.088-0.305-0.147c0.64-0.639,1.337-1.153,2.034-1.678
		c-0.059,0.028-0.119,0.053-0.178,0.083c-0.526,0.259-1.072,0.461-1.654,0.56c-0.637,0.111-1.268,0.085-1.887-0.108
		c-0.073-0.023-0.145-0.052-0.247-0.089c0.373-0.474,0.865-0.749,1.356-1.037c-0.081,0.02-0.161,0.039-0.241,0.06
		c-0.796,0.213-1.6,0.26-2.41,0.101c-0.162-0.032-0.321-0.103-0.471-0.176c-0.121-0.059-0.221-0.155-0.287-0.3
		c0.058-0.047,0.11-0.095,0.165-0.137c0.582-0.443,1.227-0.777,1.891-1.076c0.681-0.306,1.375-0.584,2.043-0.915
		c0.878-0.434,1.737-0.908,2.604-1.366c0.287-0.152,0.57-0.311,0.855-0.465c0.216-0.117,0.445-0.183,0.694-0.134
		c-0.062,0.055-0.119,0.117-0.187,0.165c-0.72,0.501-1.482,0.936-2.248,1.364c-0.929,0.519-1.857,1.043-2.784,1.565
		c-0.06,0.034-0.116,0.073-0.176,0.111c0.007,0.011,0.013,0.022,0.02,0.033c1.844-0.988,3.637-2.071,5.499-3.058
		c0.285,0.216,0.59,0.398,0.835,0.687c-0.151,0.087-0.279,0.16-0.406,0.236c-0.128,0.077-0.256,0.156-0.381,0.238
		c-0.125,0.082-0.249,0.166-0.372,0.251c-0.123,0.085-0.245,0.172-0.366,0.258c-0.121,0.087-0.242,0.176-0.362,0.264
		c-0.125,0.092-0.252,0.184-0.378,0.276c-0.12,0.089-0.24,0.177-0.362,0.263c-0.121,0.088-0.243,0.175-0.365,0.259
		c-0.122,0.085-0.246,0.17-0.37,0.254c-0.115,0.079-0.231,0.157-0.346,0.235c0.009,0.012,0.017,0.024,0.025,0.036
		c0.257-0.164,0.521-0.317,0.77-0.492c0.753-0.531,1.5-1.072,2.253-1.604c0.163-0.114,0.336-0.223,0.52-0.299
		c0.241-0.098,0.436-0.03,0.599,0.177c-0.132,0.082-0.263,0.162-0.396,0.243c-0.127,0.078-0.256,0.156-0.383,0.233
		c-0.133,0.081-0.266,0.162-0.4,0.242c-0.128,0.078-0.256,0.154-0.384,0.232c-0.133,0.08-0.267,0.162-0.4,0.243
		c-0.127,0.077-0.256,0.155-0.384,0.232c-0.133,0.08-0.266,0.162-0.4,0.243c-0.127,0.078-0.255,0.156-0.382,0.234
		c-0.133,0.081-0.266,0.163-0.399,0.244c-0.127,0.079-0.255,0.157-0.381,0.237c-0.132,0.082-0.264,0.165-0.397,0.248
		c-0.126,0.079-0.254,0.159-0.378,0.241c-0.122,0.081-0.255,0.15-0.367,0.245c0.008,0.011,0.016,0.022,0.023,0.033
		c1.713-1.043,3.426-2.086,5.138-3.129c0.152,0.118,0.284,0.22,0.43,0.332c-0.053,0.084-0.098,0.17-0.16,0.243
		c-0.118,0.138-0.235,0.279-0.37,0.4c-0.47,0.42-0.947,0.832-1.421,1.246c-0.035,0.031-0.067,0.065-0.101,0.098
		c0.031,0.005,0.049-0.002,0.064-0.012c0.699-0.5,1.365-1.038,1.944-1.677c0.058-0.064,0.134-0.112,0.186-0.157
		c0.11,0.05,0.19,0.088,0.272,0.125c0.056,0.067,0.112,0.134,0.181,0.214c-0.36,0.272-0.707,0.533-1.054,0.794
		c-0.346,0.262-0.694,0.525-1.039,0.789c-0.351,0.268-0.702,0.537-1.05,0.809c-0.333,0.262-0.677,0.512-0.997,0.792
		c0.009,0.011,0.018,0.023,0.026,0.033c1.396-1.059,2.792-2.117,4.176-3.167c0.082,0.031,0.134,0.05,0.186,0.07
		c0.005-0.011,0.011-0.022,0.016-0.033c-0.15-0.099-0.299-0.198-0.449-0.299c-0.025-0.028-0.046-0.06-0.076-0.083
		c-0.732-0.567-1.465-1.135-2.198-1.7c-0.03-0.022-0.067-0.034-0.102-0.048c-0.033-0.038-0.06-0.083-0.099-0.114
		c-0.387-0.331-0.744-0.688-1.015-1.123c-0.006-0.01-0.021-0.015-0.012-0.009c-0.07,0.042-0.127,0.089-0.192,0.114
		c-1.205,0.447-2.41,0.892-3.615,1.338c-0.031,0.011-0.059,0.025-0.084,0.052c1.327-0.39,2.635-0.827,3.912-1.392
		c0.042,0.074,0.078,0.133,0.114,0.195c-0.016,0.037-0.03,0.07-0.043,0.105c0.325,0.134,0.664,0.5,0.683,0.744
		c-0.024,0.013-0.05,0.032-0.079,0.043c-0.687,0.281-1.333,0.643-1.98,1.002c-0.761,0.422-1.518,0.849-2.313,1.208
		c-0.808,0.365-1.64,0.658-2.521,0.783c-0.731,0.104-1.462,0.111-2.187-0.059c-0.287-0.068-0.554-0.185-0.774-0.391
		c-0.094-0.089-0.176-0.186-0.234-0.331c1.287-0.589,2.621-1.01,3.948-1.46c-0.121,0.032-0.243,0.062-0.364,0.095
		c-0.849,0.224-1.707,0.4-2.588,0.43c-0.768,0.026-1.517-0.054-2.217-0.407c-0.287-0.144-0.542-0.332-0.765-0.564
		c-0.048-0.05-0.092-0.106-0.158-0.184c1.119-0.426,2.27-0.562,3.417-0.738c-0.128,0.012-0.257,0.025-0.385,0.035
		c-0.136,0.011-0.272,0.019-0.408,0.027c-1.06,0.059-2.116,0.058-3.154-0.213c-0.735-0.192-1.4-0.514-1.943-1.06
		c-0.221-0.222-0.408-0.471-0.563-0.743c-0.032-0.054-0.056-0.113-0.094-0.191c0.975-0.101,1.928-0.111,2.881-0.135
		c-0.595-0.021-1.187-0.065-1.772-0.172c-0.824-0.152-1.61-0.407-2.326-0.855c-0.683-0.427-1.219-0.987-1.552-1.729
		c-0.022-0.047-0.041-0.095-0.06-0.143c-0.007-0.018-0.007-0.037-0.015-0.081c0.067-0.014,0.133-0.033,0.201-0.04
		c0.532-0.058,1.065-0.047,1.595,0.011C8.58,16,9.501,16.122,10.424,16.217c0.594,0.06,1.191,0.095,1.788,0.127
		c1.876,0.1,3.752,0.124,5.63,0.132c1.403,0.006,2.806,0.027,4.209,0.043c0.396,0.005,0.791,0.022,1.193,0.034
		c0.011,0.046,0.02,0.086,0.036,0.155c0.058-0.11,0.104-0.192,0.166-0.311c-0.116,0-0.203,0-0.29,0
		c-1.773-0.004-3.547,0.01-5.32-0.019c-1.416-0.023-2.831-0.08-4.246-0.149c-1.122-0.055-2.243-0.142-3.362-0.231
		c-0.81-0.064-1.615-0.162-2.4-0.382c-0.86-0.242-1.65-0.627-2.342-1.196c-0.591-0.486-1.025-1.082-1.231-1.828
		c-0.019-0.066-0.029-0.134-0.043-0.204c0.207,0,0.396-0.013,0.581,0.002c0.804,0.063,1.594,0.215,2.38,0.397
		c1.475,0.34,2.964,0.601,4.464,0.798c1.299,0.173,2.601,0.335,3.902,0.492c0.961,0.116,1.923,0.214,2.884,0.329
		c1.934,0.231,3.865,0.481,5.822,0.852c0.008-0.013,0.025-0.048,0.044-0.083c0.016-0.028,0.035-0.052,0.056-0.086
		c-0.361,0.019-0.7-0.07-1.042-0.112c-0.85-0.108-1.699-0.227-2.548-0.336c-0.889-0.114-1.778-0.224-2.667-0.336
		c-0.862-0.11-1.727-0.211-2.589-0.33c-1.009-0.139-2.019-0.282-3.025-0.439c-0.988-0.154-1.973-0.321-2.958-0.493
		c-1.203-0.211-2.397-0.463-3.543-0.898c-0.579-0.22-1.133-0.489-1.64-0.849c-0.923-0.655-1.529-1.522-1.762-2.639
		C2.557,8.621,2.557,8.583,2.55,8.514c0.218,0.035,0.421,0.061,0.623,0.099C4.108,8.78,5.015,9.051,5.913,9.358
		c2.517,0.86,5.095,1.489,7.702,2.002c2.064,0.406,4.133,0.779,6.199,1.172c1.236,0.236,2.471,0.48,3.707,0.72
		c0.063,0.012,0.128,0.015,0.192,0.022c0.03,0.012,0.058,0.027,0.089,0.033c0.36,0.079,0.721,0.157,1.082,0.237
		c0.169,0.037,0.336,0.08,0.506,0.119c-0.008,0.066-0.013,0.111-0.019,0.157c0.009,0.003,0.017,0.006,0.025,0.009
		c0.064-0.087,0.128-0.174,0.2-0.272c-0.064-0.054-0.118-0.101-0.202-0.173c0.039,0.094,0.063,0.148,0.098,0.232
		c-0.36-0.073-0.689-0.142-1.018-0.205c-0.254-0.048-0.509-0.09-0.764-0.134c-0.065-0.023-0.129-0.052-0.196-0.067
		c-4.038-0.851-8.05-1.826-12.072-2.756c-1.037-0.238-2.08-0.451-3.118-0.688C7.281,9.527,6.246,9.25,5.253,8.836
		c-0.921-0.384-1.754-0.902-2.455-1.62C2.197,6.599,1.764,5.885,1.588,5.032c-0.035-0.17-0.079-0.34-0.05-0.533
		c0.057,0.01,0.107,0.015,0.154,0.028c0.908,0.236,1.781,0.569,2.643,0.928C5.533,5.954,6.72,6.481,7.943,6.92
		c1.956,0.703,3.936,1.327,5.918,1.952c2.098,0.662,4.19,1.341,6.286,2.011c0.054,0.018,0.11,0.032,0.175,0.021
		c-0.071-0.027-0.142-0.055-0.214-0.08C16.214,9.472,12.32,8.12,8.426,6.768c-1.042-0.364-2.076-0.75-3.08-1.21
		c-0.87-0.398-1.664-0.906-2.34-1.589C2.163,3.115,1.633,2.103,1.464,0.911C1.441,0.745,1.433,0.577,1.413,0.373
		c0.104,0.036,0.182,0.058,0.256,0.088c0.859,0.338,1.689,0.738,2.506,1.166C5.151,2.14,6.12,2.669,7.105,3.169
		c1.443,0.733,2.939,1.347,4.44,1.95c1.042,0.418,2.087,0.829,3.132,1.243c0.059,0.024,0.119,0.049,0.188,0.078
		c0.16,0.268,0.323,0.54,0.499,0.838c-0.128-0.032-0.235-0.059-0.342-0.086c-0.056-0.029-0.111-0.062-0.169-0.086
		c-1.078-0.433-2.156-0.867-3.234-1.298C9.546,4.979,7.473,4.15,5.399,3.322C5.335,3.295,5.27,3.277,5.204,3.256
		C5.256,3.312,5.317,3.342,5.38,3.367c1.926,0.778,3.85,1.562,5.778,2.333c1.218,0.487,2.44,0.959,3.661,1.437
		c0.065,0.026,0.136,0.036,0.205,0.052c0.066,0.037,0.133,0.075,0.198,0.111c0.141,0.079,0.282,0.158,0.435,0.232
		c-0.272-0.371-0.516-0.761-0.703-1.202c0.054-0.016,0.094-0.035,0.135-0.038c0.25-0.023,0.491,0.025,0.729,0.097
		c0.266,0.083,0.531,0.174,0.796,0.258c0.097,0.031,0.197,0.048,0.307,0.039c-0.088-0.038-0.175-0.079-0.263-0.115
		c-0.228-0.095-0.459-0.183-0.684-0.283c-0.202-0.091-0.389-0.21-0.536-0.382c-0.052-0.061-0.094-0.132-0.119-0.226
		c0.067,0.016,0.135,0.03,0.202,0.047c1.4,0.386,2.74,0.93,4.067,1.513c1.046,0.458,2.094,0.916,3.14,1.372
		c0.077,0.034,0.156,0.06,0.253,0.098c0.032-0.205,0.028-0.411,0.152-0.578c0.119-0.161,0.27-0.273,0.492-0.328
		c0,0.068,0.002,0.123,0,0.178c-0.024,0.506,0.165,0.911,0.575,1.211c0.244,0.177,0.517,0.298,0.797,0.402
		c0.201,0.074,0.406,0.135,0.609,0.207c0.232,0.083,0.47,0.156,0.693,0.259c0.214,0.101,0.414,0.233,0.629,0.356
		c0.058-0.411,0.225-0.745,0.734-0.806c-0.069,0.225-0.132,0.431-0.198,0.642c0.229,0.386,0.458,0.769,0.69,1.159
		c0.309-0.153,0.633-0.288,1.006-0.047c-0.065,0.036-0.105,0.055-0.142,0.078c-0.258,0.155-0.397,0.376-0.421,0.682
		c-0.027,0.316-0.056,0.634-0.119,0.944c-0.116,0.571-0.483,0.918-1.043,1.062c-0.164,0.041-0.331,0.067-0.503,0.102
		c-0.003,0.004-0.015,0.011-0.02,0.023c-0.239,0.551-0.576,1.044-0.882,1.557c-0.209,0.35-0.41,0.709-0.572,1.083
		c-0.256,0.592-0.325,1.212-0.182,1.85c0.115,0.517,0.386,0.947,0.751,1.319c0.174,0.176,0.353,0.347,0.549,0.495
		c0.549,0.417,1.098,0.832,1.661,1.227c0.518,0.363,1.074,0.659,1.695,0.811c0.131,0.032,0.266,0.053,0.414,0.083
		c0.039-0.227,0.325-0.268,0.339-0.517c-0.142-0.294-0.29-0.597-0.437-0.899c-0.007,0.002-0.015,0.004-0.023,0.007
		c0.097,0.306,0.193,0.612,0.3,0.95c-0.282-0.09-0.537-0.076-0.808-0.019c-0.028-0.336,0.085-0.68-0.094-1.007
		c-0.269,0.233-0.534,0.445-0.932,0.279c0.231-0.388,0.522-0.734,0.538-1.232c-0.072,0.068-0.119,0.119-0.175,0.16
		c-0.134,0.101-0.263,0.212-0.41,0.291c-0.199,0.106-0.401,0.084-0.597-0.067c0.035-0.041,0.065-0.079,0.096-0.116
		c0.138-0.172,0.287-0.335,0.41-0.518c0.166-0.245,0.219-0.525,0.187-0.819c-0.007-0.061-0.024-0.12-0.04-0.206
		c-0.386,0.377-0.812,0.592-1.385,0.581c0.074-0.083,0.119-0.132,0.164-0.183c0.194-0.227,0.404-0.442,0.578-0.683
		c0.302-0.415,0.459-0.885,0.441-1.405c-0.002-0.045-0.005-0.091-0.012-0.135c-0.004-0.024-0.017-0.046-0.031-0.082
		c-0.129,0.082-0.197,0.2-0.25,0.324c-0.073,0.174-0.13,0.352-0.202,0.527c-0.043,0.106-0.099,0.205-0.172,0.302
		c-0.11-0.386-0.088-0.765-0.006-1.145c0.082-0.386,0.256-0.733,0.466-1.1c-0.068,0.013-0.111,0.013-0.147,0.027
		c-0.236,0.091-0.432,0.24-0.59,0.433c-0.138,0.172-0.261,0.355-0.39,0.536c-0.048,0.067-0.093,0.138-0.148,0.219
		c-0.036-0.25,0.182-0.928,0.425-1.363c0.205-0.366,0.309-0.479,0.971-1.058c-0.324-0.007-0.651,0.083-0.94-0.204
		c0.108-0.016,0.175-0.03,0.242-0.035c0.44-0.035,0.793-0.232,1.06-0.582c0.105-0.138,0.196-0.29,0.285-0.44
		c0.096-0.163,0.18-0.331,0.271-0.496c0.181-0.325,0.389-0.628,0.71-0.844c-0.15-0.024-0.278,0.028-0.401,0.089
		c-0.121,0.06-0.237,0.132-0.358,0.2c0.01-0.244,0.269-0.628,0.586-0.879c0.289-0.229,0.626-0.358,1.01-0.469
		c-0.367-0.165-0.786-0.206-0.94-0.672c0.31,0.043,0.581,0.173,0.881,0.138c0.206-0.108,0.271-0.332,0.406-0.539
		c0.153-0.025,0.324-0.052,0.506-0.081c-0.037-0.128-0.147-0.174-0.251-0.215c-0.264-0.107-0.541-0.128-0.823-0.101
		c-0.077,0.007-0.153,0.015-0.274,0.027c0.062-0.057,0.09-0.09,0.123-0.111c0.187-0.115,0.371-0.241,0.568-0.339
		c0.476-0.238,0.958-0.253,1.44,0c0.202,0.105,0.406,0.204,0.615,0.294c0.184,0.079,0.377,0.098,0.568,0.017
		c0.018-0.008,0.033-0.022,0.053-0.036c-0.146-0.127-0.302-0.24-0.428-0.379c-0.127-0.14-0.186-0.319-0.166-0.535
		c0.601,0.335,1.233,0.465,1.939,0.452c-0.05-0.066-0.079-0.111-0.115-0.149c-0.079-0.086-0.168-0.164-0.242-0.255
		c-0.119-0.146-0.178-0.312-0.151-0.501c0.024,0,0.041-0.005,0.047,0.001c0.297,0.301,0.686,0.409,1.079,0.504
		c0.195,0.047,0.393,0.083,0.59,0.126c0.311,0.069,0.62,0.143,0.925,0.291c-0.027-0.051-0.051-0.106-0.08-0.156
		c-0.165-0.288-0.318-0.581-0.393-0.909c-0.017-0.074-0.023-0.15-0.035-0.234c0.031,0.011,0.048,0.012,0.053,0.02
		c0.166,0.312,0.416,0.546,0.699,0.748c0.153,0.11,0.309,0.216,0.462,0.327c0.051,0.037,0.1,0.08,0.164,0.131
		c-0.421,0.332-0.6,0.787-0.725,1.292c-0.072-0.015-0.134-0.025-0.194-0.039c-0.537-0.139-1.082-0.22-1.637-0.211
		c-1.414,0.024-2.63,0.54-3.665,1.494c-0.653,0.602-1.159,1.314-1.549,2.107c-0.628,1.277-0.927,2.628-0.904,4.048
		c0.012,0.73,0.137,1.445,0.366,2.142c-0.032-0.172-0.065-0.343-0.093-0.515c-0.295-1.824-0.129-3.599,0.576-5.313
		c0.375-0.912,0.899-1.728,1.625-2.402c1.208-1.124,2.643-1.583,4.277-1.426c0.379,0.037,0.754,0.125,1.131,0.19
		c0.032,0.005,0.063,0.007,0.105,0.011c0.021-0.065,0.04-0.125,0.058-0.186c0.109-0.358,0.273-0.69,0.515-0.975
		c0.092-0.108,0.203-0.199,0.319-0.282c0.061-0.044,0.147-0.052,0.258-0.088c-0.133,0.88-0.055,1.694,0.338,2.462
		c-0.163-0.594-0.27-1.192-0.172-1.828c0.13,0.08,0.154,0.209,0.201,0.32c0.05,0.119,0.087,0.245,0.132,0.366
		c0.045,0.12,0.093,0.24,0.151,0.389c0.111-0.196,0.085-0.379,0.094-0.555c0.009-0.174,0.021-0.348,0.032-0.532
		c0.126,0.067,0.213,0.175,0.349,0.484c0.078,0.177,0.141,0.364,0.178,0.554c0.037,0.194,0.036,0.397,0.051,0.608
		c0.316-0.109,0.621-0.315,1.014-0.118c-0.074,0.033-0.11,0.052-0.148,0.064c-0.156,0.05-0.305,0.113-0.417,0.239
		c-0.127,0.14-0.143,0.263-0.048,0.457c0.229-0.157,0.48-0.229,0.754-0.158c0.182,0.047,0.33,0.15,0.446,0.299
		c0.228,0.292,0.241,0.704,0.02,1.011c-0.03-0.09-0.054-0.169-0.083-0.247c-0.038-0.104-0.072-0.209-0.123-0.306
		c-0.068-0.125-0.173-0.209-0.331-0.213c-0.132,0.083-0.201,0.216-0.27,0.347c-0.063,0.121-0.118,0.247-0.191,0.361
		c-0.088,0.138-0.22,0.192-0.387,0.169c-0.163-0.024-0.255-0.124-0.293-0.273c-0.037-0.144-0.054-0.293-0.089-0.439
		c-0.033-0.144-0.065-0.293-0.202-0.383c-0.139-0.002-0.166,0.106-0.218,0.196c0.133,0.205,0.258,0.41,0.395,0.608
		c0.373,0.539,0.556,1.138,0.588,1.789c0.012,0.24,0.046,0.478,0.078,0.716c0.042,0.322,0.158,0.616,0.34,0.882
		c0.165,0.242,0.336,0.479,0.5,0.719c0.148,0.215,0.285,0.437,0.338,0.697c0.021,0.099,0.02,0.201,0.029,0.308
		c-0.162,0.042-0.258-0.033-0.351-0.113c-0.087-0.073-0.175-0.147-0.279-0.234c-0.079,0.078-0.14,0.139-0.197,0.195
		c0.06,0.28,0.281,0.2,0.445,0.229c-0.073,0.382-0.516,0.744-0.884,0.724c-0.149-0.007-0.279-0.068-0.388-0.165
		c-0.129-0.118-0.248-0.247-0.374-0.369c-0.107-0.105-0.208-0.216-0.328-0.305c-0.219-0.164-0.412-0.118-0.591,0.137
		c0.099,0.076,0.197,0.158,0.302,0.228c0.139,0.096,0.289,0.175,0.425,0.276c0.255,0.19,0.354,0.452,0.33,0.78
		c-0.324,0.137-0.647,0.204-0.995,0.095c-0.095-0.708-0.236-1.379-0.789-1.892c0.193-0.203,0.074-0.377-0.052-0.55
		c-0.111-0.151-0.223-0.301-0.35-0.474c-0.907,0.113-1.594-0.296-2.097-1.074c-0.012,0.008-0.024,0.016-0.037,0.024
		c0.072,0.387,0.132,0.775,0.216,1.159c0.388,1.752,1.247,3.25,2.468,4.549c0.089,0.095,0.185,0.184,0.28,0.271
		c0.423,0.383,0.866,0.746,1.142,1.263c0.124,0.255,0.205,0.521,0.206,0.807c0.11,0.804-0.003,1.982-0.151,2.435
		c-0.466-0.214-0.889-0.477-1.224-0.884c0.013,0.035,0.02,0.073,0.039,0.104c0.169,0.273,0.41,0.471,0.69,0.615
		c0.387,0.199,0.773,0.403,1.173,0.57c0.778,0.326,1.566,0.628,2.35,0.94c0.506,0.201,1.009,0.41,1.492,0.677
		c0.013,0.028,0.03,0.056,0.038,0.087c0.239,0.821,0.644,1.558,1.137,2.25c0.327,0.461,0.669,0.911,1.003,1.366
		c0.398,0.539,0.773,1.092,1.06,1.7c0.201,0.425,0.36,0.902,0.401,1.196c-0.249,0.355-1.067,0.381-1.391,0.036
		c0.014-0.114,0.03-0.236,0.041-0.358c0.043-0.426-0.054-0.814-0.333-1.144c-0.104-0.123-0.221-0.239-0.339-0.348
		c-0.181-0.169-0.367-0.332-0.553-0.493c-0.619-0.54-1.114-1.178-1.52-1.888c-0.1-0.175-0.21-0.342-0.31-0.518
		c-0.204-0.357-0.522-0.508-0.922-0.513c-0.085-0.001-0.17-0.008-0.253-0.003c-0.769,0.045-1.514-0.09-2.249-0.293
		c-0.538-0.149-1.076-0.297-1.618-0.428c-0.438-0.106-0.883-0.153-1.335-0.083c0.487-0.015,0.956,0.082,1.438,0.226
		c-0.037,0.077-0.064,0.141-0.099,0.203c-0.4,0.733-1.004,1.247-1.737,1.624c-0.7,0.358-1.447,0.573-2.21,0.735
		c-0.851,0.181-1.714,0.294-2.578,0.397c-0.373,0.045-0.746,0.099-1.119,0.15c-0.037,0.005-0.07,0.025-0.106,0.037l0.004-0.004
		c-0.229,0.042-0.461,0.071-0.687,0.127c-0.533,0.131-1.036,0.33-1.491,0.648c-0.269,0.187-0.394,0.452-0.478,0.75l0.004-0.005
		c-0.037,0.065-0.083,0.128-0.111,0.197c-0.276,0.659-0.546,1.32-0.825,1.977c-0.097,0.227-0.212,0.445-0.327,0.664
		c-0.52,0.996-1.279,1.757-2.254,2.309c-0.538,0.305-1.096,0.565-1.672,0.786c-0.211,0.081-0.433,0.139-0.654,0.188
		c-0.468,0.105-0.804,0.373-1.042,0.782c-0.377,0.65-0.602,1.351-0.665,2.1c-0.035,0.413,0.059,0.813,0.169,1.209
		c0.143,0.515,0.359,1,0.584,1.484c0.223,0.477,0.448,0.951,0.659,1.433c0.143,0.327,0.258,0.665,0.326,1.034
		c-0.431,0.33-0.902,0.463-1.442,0.331c-0.122-0.209-0.132-0.436-0.143-0.662c-0.007-0.142,0.005-0.285,0.002-0.428
		c-0.012-0.495-0.151-0.964-0.351-1.409c-0.213-0.473-0.457-0.932-0.701-1.39c-0.276-0.515-0.579-1.016-0.851-1.532
		c-0.28-0.532-0.483-1.093-0.548-1.696c-0.024-0.219-0.026-0.44-0.027-0.66c-0.002-0.225,0.088-0.421,0.252-0.573
		c0.137-0.127,0.286-0.245,0.441-0.349c0.222-0.148,0.46-0.27,0.68-0.419c0.187-0.127,0.373-0.263,0.534-0.421
		c0.26-0.257,0.352-0.572,0.237-0.929c-0.076-0.235-0.159-0.468-0.251-0.696c-0.313-0.77-0.482-1.576-0.598-2.394
		c-0.062-0.449-0.076-0.905-0.115-1.399c-0.398-0.445-0.792-0.955-1.285-1.373c-0.298-0.255-0.62-0.473-0.998-0.592
		c-0.263-0.083-0.53-0.12-0.806-0.072c-0.676,0.119-1.104,0.815-0.904,1.47c0.034,0.111,0.098,0.184,0.207,0.209
		c0.082,0.019,0.166,0.037,0.249,0.037c0.176,0,0.35-0.014,0.526-0.018c0.081-0.002,0.162,0.006,0.264,0.011
		c-0.078,0.212-0.205,0.345-0.362,0.453c-0.362,0.247-0.767,0.308-1.192,0.249c-0.342-0.048-0.655-0.171-0.896-0.429
		c-0.088-0.093-0.156-0.204-0.256-0.304c0.071,0.339,0.137,0.68,0.214,1.017c0.085,0.369,0.121,0.741,0.101,1.121
		c-0.02,0.344-0.132,0.647-0.368,0.9c-0.133,0.142-0.274,0.276-0.409,0.418c-0.12,0.127-0.243,0.254-0.351,0.391
		c-0.149,0.187-0.184,0.395-0.07,0.619c0.042,0.083,0.096,0.171,0.039,0.3c-0.407-0.336-0.623-0.77-0.756-1.25
		c-0.132-0.478-0.127-0.962-0.028-1.476c-0.134,0.048-0.215,0.126-0.291,0.208c-0.205,0.224-0.303,0.501-0.338,0.793
		c-0.052,0.431-0.081,0.866-0.118,1.299c-0.026,0.299-0.071,0.593-0.193,0.87c-0.315,0.706-0.857,1.143-1.595,1.346
		c-0.042,0.012-0.087,0.015-0.146,0.026c0.006-0.038,0.005-0.064,0.015-0.084c0.218-0.44,0.26-0.909,0.21-1.387
		c-0.049-0.477-0.116-0.951-0.18-1.457c-0.107,0.261-0.042,0.808,0.132,1.247C9.587,37.397,9.566,37.45,9.537,37.5
		c-0.492,0.847-1.192,1.435-2.149,1.682c-0.551,0.142-1.095,0.095-1.621-0.132c-0.042-0.019-0.083-0.038-0.122-0.06
		c-0.01-0.005-0.014-0.021-0.032-0.048c0.108-0.029,0.208-0.061,0.312-0.084c0.716-0.157,1.085-0.645,1.141-1.366
		c0.03-0.383,0.048-0.766,0.076-1.146c0.009-0.123,0.029-0.245,0.048-0.406c-0.074,0.065-0.124,0.108-0.173,0.15
		c-0.356,0.31-0.81,0.367-1.214,0.153c-0.029-0.015-0.052-0.036-0.094-0.063c0.044-0.029,0.075-0.05,0.109-0.06
		c0.366-0.102,0.601-0.346,0.745-0.688c0.148-0.352,0.193-0.725,0.23-1.101c0.05-0.517,0.094-1.034,0.157-1.55
		c0.022-0.171,0.081-0.34,0.141-0.504c0.115-0.31,0.32-0.547,0.63-0.695c-0.501-0.032-1.012-0.006-1.449-0.396
		c0.073-0.014,0.112-0.029,0.151-0.029c0.612-0.01,1.071-0.282,1.374-0.809c0.145-0.253,0.268-0.519,0.405-0.776
		c0.086-0.161,0.168-0.325,0.272-0.472c0.097-0.137,0.214-0.26,0.334-0.378c0.139-0.135,0.309-0.202,0.51-0.205
		c0.239-0.003,0.478-0.026,0.715-0.073c-0.086,0.007-0.171,0.015-0.256,0.021c-0.337,0.024-0.675,0.053-1.009-0.022
		c-0.225-0.05-0.412-0.158-0.512-0.38c-0.015-0.033-0.016-0.071-0.029-0.127c0.085,0.016,0.153,0.027,0.22,0.041
		c0.35,0.078,0.672,0.014,0.96-0.198c0.12-0.089,0.242-0.181,0.338-0.292c0.534-0.614,1.226-0.921,2.009-1.061
		c0.808-0.145,1.614-0.155,2.419,0.018c0.838,0.179,1.521,0.624,2.09,1.247c0.293,0.321,0.556,0.669,0.841,0.999
		c0.322,0.374,0.635,0.757,0.98,1.108c0.402,0.408,0.885,0.699,1.438,0.867c0.049,0.015,0.1,0.026,0.175,0.045
		c0.173-0.389,0.402-0.742,0.697-1.045c0.295-0.303,0.603-0.59,0.91-0.889c0.464,0.005,0.888-0.134,1.303-0.307
		c0.045-0.02,0.087-0.049,0.131-0.074c0.114-0.02,0.23-0.041,0.345-0.061c0.006,0.012,0.012,0.024,0.018,0.037
		c-0.074,0.06-0.15,0.118-0.221,0.181c-0.122,0.107-0.251,0.207-0.361,0.325c-0.121,0.128-0.208,0.279-0.211,0.466
		c0.152,0.149,0.333,0.209,0.533,0.225c0.334,0.025,0.661-0.027,0.985-0.104c0.693-0.162,1.315-0.479,1.894-0.884
		c0.858-0.603,1.573-1.355,2.218-2.176c0.01-0.011,0.006-0.032,0.014-0.077c-0.063,0.068-0.108,0.114-0.151,0.161
		c-0.202,0.22-0.402,0.444-0.607,0.66c-0.606,0.64-1.273,1.206-2.028,1.663c-0.357,0.216-0.73,0.397-1.133,0.513
		c-0.497,0.144-0.997,0.175-1.496,0.014c-0.045-0.015-0.087-0.041-0.147-0.07c0.481-0.562,1.027-1.028,1.564-1.506
		c-0.03-0.002-0.05,0.009-0.07,0.019c-0.355,0.188-0.711,0.376-1.066,0.565C22.791,28.36,22.767,28.381,22.741,28.399z M6.854,7.501
		c6.015,1.819,12.057,3.539,18.096,5.236c0.1,0.163,0.192,0.315,0.284,0.467c0.014-0.005,0.027-0.011,0.039-0.016
		c-0.149-0.274-0.197-0.565-0.16-0.847c-0.372-0.036-0.703-0.143-1.039-0.231c-0.337-0.087-0.672-0.185-1.006-0.279
		c0.194,0.102,0.4,0.178,0.603,0.255c0.206,0.079,0.412,0.156,0.618,0.238c0.196,0.079,0.4,0.145,0.579,0.262
		c-0.074-0.004-0.142-0.021-0.211-0.038c-2.812-0.741-5.599-1.564-8.391-2.37c-3.049-0.879-6.101-1.742-9.153-2.613
		C7.028,7.543,6.941,7.524,6.854,7.501z M9.376,13.982c4.516,0.54,9.038,1.032,13.565,1.462c-0.207-0.052-0.416-0.101-0.628-0.123
		c-4.258-0.473-8.517-0.951-12.784-1.337C9.48,13.978,9.428,13.982,9.376,13.982z M18.855,12.969
		c0.001-0.012,0.003-0.023,0.004-0.035c-0.056-0.015-0.112-0.032-0.169-0.043c-0.895-0.188-1.791-0.374-2.685-0.564
		c-2.576-0.548-5.155-1.084-7.758-1.494c-0.133-0.021-0.268-0.035-0.403-0.052c-0.002,0.012-0.003,0.024-0.005,0.037
		C11.512,11.534,15.184,12.252,18.855,12.969z M25.415,11.813c-0.095-0.035-0.171-0.067-0.251-0.091
		c-0.991-0.289-1.98-0.581-2.972-0.862c-1.062-0.301-2.123-0.598-3.148-1.011c-0.932-0.377-1.815-0.839-2.585-1.496
		c-0.011-0.01-0.031-0.009-0.083-0.021c0.074,0.069,0.116,0.116,0.167,0.155c0.222,0.169,0.439,0.346,0.671,0.501
		c0.656,0.439,1.372,0.762,2.107,1.044c1.092,0.419,2.219,0.728,3.34,1.056c0.797,0.233,1.589,0.482,2.384,0.724
		c0.089,0.028,0.185,0.046,0.222,0.165C25.32,11.919,25.362,11.871,25.415,11.813z M22.783,18.659
		c-0.201,0.216-0.44,0.216-0.682,0.206c-0.116-0.004-0.234-0.005-0.349,0.005c-0.504,0.043-1.008,0.092-1.512,0.138
		c-0.595,0.056-1.189,0.111-1.783,0.171c-0.71,0.071-1.421,0.144-2.13,0.219c-0.628,0.066-1.258,0.136-1.886,0.203
		c0.17,0.014,0.337,0.005,0.505-0.01c1.241-0.109,2.481-0.216,3.722-0.33c1.247-0.113,2.493-0.234,3.74-0.352
		c0.127-0.012,0.255-0.027,0.391-0.042C22.793,18.8,22.79,18.745,22.783,18.659z M11.755,17.155c0.02,0.001,0.038,0.003,0.058,0.003
		c1.46,0.019,2.92,0.038,4.381,0.055c0.546,0.005,1.09,0.007,1.636-0.001c0.538-0.008,1.076-0.032,1.614-0.049
		C16.881,17.114,14.318,17.058,11.755,17.155z M27.972,24.567c-0.461,0.566-0.993,1.044-1.498,1.549
		c0.577-0.492,1.149-0.989,1.773-1.428c-0.243-0.164-0.497-0.334-0.767-0.517c0.007,0.059,0.01,0.09,0.016,0.142
		c-0.634,0.699-1.277,1.407-1.933,2.13c0.035-0.016,0.053-0.02,0.065-0.031c0.456-0.397,0.914-0.79,1.275-1.282
		c0.092-0.125,0.191-0.248,0.302-0.356c0.092-0.09,0.196-0.173,0.308-0.234C27.656,24.462,27.808,24.459,27.972,24.567z
		 M16.379,21.068c0.057-0.003,0.115-0.001,0.173-0.009c0.392-0.056,0.784-0.104,1.174-0.173c1.028-0.184,2.056-0.372,3.082-0.567
		c0.439-0.083,0.877-0.176,1.311-0.285c0.293-0.075,0.575-0.195,0.899-0.023c-0.037-0.111-0.062-0.187-0.092-0.273
		c-0.03,0.037-0.043,0.071-0.063,0.074C20.699,20.198,18.564,20.736,16.379,21.068z M23.054,20.121
		c-0.065,0.017-0.12,0.03-0.176,0.044c-0.357,0.095-0.711,0.205-1.072,0.284c-1.358,0.292-2.717,0.571-4.076,0.859
		c-0.469,0.099-0.936,0.206-1.404,0.311c2.271-0.373,4.509-0.903,6.778-1.355C23.086,20.21,23.072,20.171,23.054,20.121z
		 M43.974,29.998c0.134,0.502,1.138,1.866,1.553,2.069c-0.039-0.097-0.06-0.179-0.103-0.247c-0.084-0.131-0.174-0.258-0.272-0.378
		C44.757,30.954,44.358,30.468,43.974,29.998z M22.748,18.309c-1.189,0.078-2.393,0.156-3.595,0.235
		c0.091,0.023,0.181,0.028,0.269,0.023c0.545-0.029,1.089-0.058,1.634-0.089c0.396-0.023,0.791-0.038,1.185-0.073
		c0.19-0.017,0.371-0.029,0.534,0.108c0.041-0.265,0.066-0.517,0.121-0.762c0.056-0.25,0.143-0.493,0.227-0.772
		c-0.261,0.206-0.55,0.189-0.849,0.206c0.219,0.057,0.467-0.06,0.606,0.14C22.834,17.666,22.793,17.973,22.748,18.309z
		 M22.825,21.24c-1.626,0.636-3.249,1.282-4.845,1.995C19.62,22.631,21.231,21.955,22.825,21.24z M26.392,26.216
		c-0.01-0.011-0.021-0.022-0.03-0.032c-0.756,0.686-1.535,1.345-2.232,2.094c0.01,0.011,0.02,0.022,0.03,0.033
		C24.904,27.612,25.648,26.914,26.392,26.216z M24.13,13.93c-0.002,0.011-0.004,0.021-0.006,0.032
		c0.285,0.057,0.569,0.114,0.873,0.176c-0.095,0.157-0.174,0.286-0.253,0.416c0.011,0.007,0.022,0.014,0.034,0.021
		c0.17-0.202,0.339-0.405,0.504-0.602c-0.118,0.026-0.234,0.066-0.352,0.071c-0.114,0.005-0.231-0.026-0.345-0.042
		C24.433,13.978,24.281,13.954,24.13,13.93z M24.141,15.359c-0.22,0.057-0.404,0.103-0.607,0.156
		c0.124,0.014,0.225,0.027,0.324,0.038c0.016,0.051,0.027,0.088,0.043,0.142C23.985,15.577,24.056,15.478,24.141,15.359z"/>
	<path fill="#FFFFFF" d="M30.537,31.754c0.187-0.013,0.375-0.032,0.562-0.037c0.241-0.008,0.457,0.058,0.656,0.203
		c0.337,0.246,0.657,0.508,0.933,0.822c0.914,1.037,0.977,2.436,0.362,3.539c-0.25,0.446-0.578,0.831-0.936,1.19
		c-0.344,0.344-0.698,0.681-1.042,1.025c-0.29,0.29-0.555,0.599-0.769,0.962c0.021,0.047,0.037,0.096,0.059,0.141
		c0.28,0.57,0.682,1.044,1.166,1.445c0.34,0.281,0.699,0.54,1.057,0.799c0.377,0.275,0.768,0.533,1.145,0.81
		c0.431,0.316,0.826,0.673,1.157,1.095c0.072,0.091,0.138,0.187,0.203,0.276c-0.257,0.435-0.736,0.662-1.204,0.572
		c-0.019-0.053-0.041-0.112-0.06-0.174c-0.137-0.457-0.398-0.829-0.774-1.12c-0.138-0.107-0.28-0.211-0.432-0.299
		c-1.034-0.597-2.072-1.188-3.107-1.784c-0.468-0.269-0.937-0.533-1.391-0.822c-0.217-0.137-0.411-0.317-0.597-0.497
		c-0.109-0.107-0.197-0.243-0.265-0.379c-0.115-0.234-0.076-0.459,0.114-0.641c0.103-0.099,0.213-0.194,0.333-0.268
		c0.618-0.377,0.6-1.224,0.215-1.675c-0.201-0.236-0.441-0.42-0.703-0.579c-0.16-0.097-0.324-0.187-0.498-0.288
		c0.034-0.079,0.061-0.15,0.094-0.22c0.216-0.458,0.449-0.909,0.645-1.374c0.165-0.394,0.287-0.804,0.428-1.208l-0.004,0.005
		c0.024-0.037,0.055-0.071,0.07-0.111c0.138-0.375,0.403-0.621,0.759-0.789c0.452-0.213,0.917-0.388,1.401-0.512
		c0.142-0.037,0.285-0.074,0.426-0.112L30.537,31.754z"/>
	<path fill="#FFFFFF" d="M39.72,23.365c0-0.286-0.082-0.553-0.206-0.807c-0.093-0.191-0.186-0.382-0.287-0.589
		c0.023-0.019,0.058-0.052,0.1-0.082c0.608-0.434,1.209-0.876,1.752-1.392c0.154-0.146,0.334-0.269,0.517-0.378
		c0.241-0.142,0.496-0.17,0.762-0.038c0.233,0.115,0.493,0.109,0.745,0.12c0.631,0.03,1.257-0.044,1.882-0.129
		c0.836-0.114,1.666-0.268,2.511-0.311c0.608-0.031,1.207,0.009,1.787,0.21c0.066,0.024,0.13,0.052,0.218,0.089
		c-0.049,0.222-0.097,0.435-0.144,0.648c-0.009,0.017-0.018,0.035-0.026,0.051c-0.059,0.093-0.111,0.191-0.179,0.276
		c-0.184,0.226-0.425,0.269-0.675,0.118c-0.143-0.088-0.281-0.186-0.413-0.292c-0.217-0.173-0.453-0.213-0.713-0.123
		c-0.184,0.063-0.367,0.127-0.55,0.196c-0.588,0.227-1.187,0.417-1.806,0.543c-0.301,0.061-0.605,0.054-0.911,0.047
		c-0.369-0.01-0.739-0.001-1.107,0.017c-0.245,0.013-0.449,0.131-0.595,0.33c-0.172,0.235-0.351,0.468-0.495,0.721
		c-0.322,0.569-0.712,1.083-1.163,1.554c-0.144,0.149-0.267,0.318-0.404,0.475c-0.068,0.079-0.138,0.156-0.216,0.224
		c-0.062,0.055-0.133,0.108-0.256,0.067c0-0.067,0.004-0.142,0-0.217c-0.023-0.383-0.045-0.764-0.074-1.145
		C39.77,23.486,39.739,23.427,39.72,23.365z"/>
	<path fill="#FFFFFF" d="M49.328,20.758c0.009-0.017,0.018-0.035,0.026-0.051c0.073-0.098,0.146-0.194,0.215-0.288
		c0.029,0.007,0.046,0.006,0.052,0.013c0.196,0.28,0.465,0.484,0.731,0.692c0.189,0.147,0.373,0.302,0.495,0.512
		c-0.284,0.406-1.178,0.626-1.669,0.401C49.214,21.611,49.203,21.177,49.328,20.758z"/>
	<path fill="#FFFFFF" d="M47.477,34.713c-0.124,0.596-0.244,1.163-0.363,1.734c-0.516-0.01-0.996-0.46-1.219-1.172
		C46.363,34.919,46.866,34.662,47.477,34.713z"/>
	<path fill="#FFFFFF" d="M22.855,48.727c-0.243,0.296-1.35,0.372-1.735,0.158c0.089-0.31,0.211-0.624,0.084-0.972
		c0.278-0.095,0.543-0.185,0.829-0.284c0.082,0.282,0.314,0.463,0.523,0.666C22.68,48.417,22.797,48.547,22.855,48.727z"/>
	<path fill="#FFFFFF" d="M35.145,44.151c0.142,0.218,0.342,0.327,0.539,0.439c0.169,0.098,0.332,0.205,0.41,0.393
		c-0.197,0.406-1.096,0.632-1.561,0.571c-0.089-0.136-0.059-0.295-0.069-0.447c-0.009-0.154-0.02-0.307-0.033-0.479
		C34.734,44.582,34.913,44.334,35.145,44.151z"/>
	<path fill="#FFFFFF" d="M49.239,22.143c-0.024,0.25-0.295,0.335-0.258,0.564c0.007,0.011,0.011,0.027,0.021,0.032
		c0.68,0.33,1.388,0.463,2.137,0.309c0.124-0.025,0.241-0.087,0.355-0.13c0.021-0.193-0.045-0.341-0.133-0.479
		c-0.081-0.125-0.176-0.242-0.261-0.364c-0.066-0.094-0.133-0.19-0.137-0.32c0.329,0.166,0.698,0.885,0.658,1.27
		c-0.721,0.422-2.251,0.17-2.832-0.294C48.877,22.509,48.989,22.303,49.239,22.143z"/>
	<path fill="#FFFFFF" d="M21.175,49.003c-0.038,0.318-0.311,0.473-0.361,0.749c0.023,0.016,0.045,0.039,0.073,0.05
		c0.64,0.253,1.301,0.343,1.983,0.224c0.185-0.032,0.364-0.091,0.516-0.213c0.007-0.155-0.054-0.282-0.136-0.4
		c-0.078-0.111-0.164-0.218-0.241-0.33c-0.051-0.074-0.107-0.151-0.061-0.25c0.225,0.109,0.551,0.734,0.569,1.106
		c-0.175,0.12-0.384,0.169-0.592,0.204c-0.699,0.12-1.382,0.052-2.044-0.204c-0.071-0.029-0.137-0.065-0.216-0.103
		C20.757,49.513,20.88,49.232,21.175,49.003z"/>
	<path fill="#FFFFFF" d="M34.1,46.202c0.099-0.194,0.157-0.417,0.371-0.58c0.041,0.242-0.211,0.352-0.182,0.554
		c0.476,0.309,1.944,0.488,2.513,0.069c0.015-0.174-0.054-0.328-0.147-0.469c-0.089-0.136-0.194-0.26-0.29-0.391
		c-0.06-0.081-0.124-0.161-0.142-0.282c0.442,0.305,0.734,0.836,0.71,1.266C36.267,46.741,34.588,46.644,34.1,46.202z"/>
	<path fill="#FFFFFF" d="M46.253,37.677c0.165-0.075,0.258-0.207,0.336-0.35c0.085-0.153,0.156-0.314,0.241-0.467
		c0.041-0.075,0.1-0.14,0.172-0.195c-0.139,0.472-0.317,0.914-0.787,1.15c-0.739-0.402-1.292-1.817-1.024-2.601
		c0.515,0.005,0.515,0.005,0.591,0.101c-0.178,0.108-0.369-0.037-0.544,0.03C45.105,36.008,45.552,37.217,46.253,37.677z"/>
	<path fill="#FFFFFF" d="M43.974,29.998c0.384,0.471,0.783,0.956,1.178,1.444c0.098,0.12,0.188,0.248,0.272,0.378
		c0.043,0.067,0.064,0.15,0.103,0.247C45.111,31.863,44.109,30.5,43.974,29.998z"/>
	<path fill="#FFFFFF" d="M56.008,25.759c-0.087-1.057-0.236-2.104-0.448-3.141c-0.625-3.05-1.734-5.912-3.337-8.581
		C47.605,6.347,39.362,1.148,29.861,0.764c-1.882-0.076-3.753,0.038-5.611,0.349c-2.057,0.345-4.05,0.915-5.976,1.717
		c-1.521,0.633-2.973,1.398-4.354,2.295c-0.06,0.038-0.139,0.063-0.174,0.156c0.296,0.116,0.583,0.228,0.875,0.343
		c0.022-0.054,0.037-0.083,0.044-0.113c0.06-0.26,0.225-0.406,0.482-0.475c0.164-0.043,0.309,0.002,0.458,0.04
		c0.975,0.256,1.928,0.579,2.855,0.97c1.226,0.518,2.442,1.06,3.662,1.59c0.136,0.059,0.272,0.115,0.417,0.178
		c0.276-0.383,0.628-0.629,1.095-0.685c0.044,0.01,0.089,0.02,0.133,0.03c0.277,0.056,0.455,0.216,0.5,0.498
		c0.022,0.139,0.024,0.284,0.021,0.425c-0.003,0.202,0.069,0.367,0.22,0.499c0.058,0.051,0.119,0.101,0.186,0.14
		c0.337,0.2,0.707,0.323,1.079,0.44c0.053,0.017,0.115,0.01,0.172,0.004c0.413-0.044,0.826-0.088,1.238-0.141
		c0.261-0.034,0.519-0.063,0.787-0.051c0.635,0.029,1.273,0.011,1.909,0.025c0.17,0.004,0.314-0.02,0.454-0.123
		c0.351-0.259,0.75-0.41,1.179-0.481c0.208-0.034,0.412-0.04,0.619,0.006c0.113,0.026,0.227,0.048,0.346,0.075
		c0.017-0.037,0.036-0.063,0.042-0.093c0.064-0.252,0.223-0.395,0.475-0.458c0.198-0.051,0.37,0,0.541,0.088
		c0.112,0.057,0.225,0.114,0.351,0.178c0.032-0.131,0.052-0.232,0.08-0.331c0.016-0.055,0.038-0.111,0.069-0.159
		c0.201-0.324,0.709-0.412,1.002-0.121c0.252,0.251,0.56,0.337,0.878,0.424c0.047,0.013,0.099,0.009,0.167,0.014
		c-0.012-0.087-0.028-0.156-0.03-0.225c-0.006-0.249,0.04-0.48,0.25-0.644c0.308-0.241,0.823-0.182,1.032,0.23
		c0.043,0.087,0.084,0.179,0.147,0.251c0.208,0.244,0.47,0.424,0.753,0.599c0.208-0.097,0.42-0.072,0.621,0.02
		c0.209,0.096,0.31,0.284,0.353,0.498c0.035,0.002,0.054,0.005,0.073,0.003c0.263-0.026,0.487,0.046,0.644,0.271
		c0.23,0.332,0.439,0.676,0.53,1.076c0.008,0.036,0.028,0.069,0.038,0.095c0.272,0.028,0.527,0.051,0.757,0.197
		c0.252,0.162,0.312,0.415,0.348,0.657c0.136,0.117,0.268,0.206,0.37,0.323c0.446,0.513,0.487,1.145,0.216,1.749
		c-0.211,0.468-0.738,0.541-1.092,0.26c-0.028-0.022-0.058-0.037-0.088-0.056c-0.012,0.015-0.026,0.03-0.037,0.044
		c0.273,0.23,0.546,0.461,0.802,0.707c0.262,0.252,0.525,0.504,0.777,0.767c0.252,0.262,0.497,0.532,0.734,0.808
		c0.241,0.281,0.473,0.569,0.698,0.863c0.22,0.289,0.432,0.585,0.635,0.887c0.203,0.301,0.398,0.609,0.585,0.921
		c0.187,0.311,0.361,0.63,0.553,0.968c0.259-0.036,0.509-0.071,0.759-0.103c0.664-0.083,1.331-0.147,2-0.059
		c0.395,0.051,0.779,0.141,1.152,0.279c0.201,0.075,0.38,0.197,0.43,0.416c0.045,0.197,0.15,0.342,0.292,0.469
		c0.116,0.104,0.239,0.2,0.36,0.299c0.4,0.324,0.753,0.691,1.068,1.098c0.262,0.339,0.404,0.722,0.475,1.138
		c0.072,0.426-0.131,0.747-0.507,0.868c-0.415,0.134-0.84,0.237-1.281,0.213c-0.595-0.032-1.169-0.166-1.717-0.4
		c-0.118-0.05-0.232-0.118-0.339-0.19c-0.274-0.187-0.375-0.435-0.28-0.759c0.05-0.171,0.148-0.329,0.229-0.489
		c0.032-0.062,0.074-0.116,0.127-0.196c-0.387-0.061-0.62-0.353-0.944-0.521c-0.259,0.099-0.523,0.198-0.797,0.304
		c1.198,3.434,1.417,6.91,0.695,10.443c0.044,0.075,0.084,0.142,0.123,0.209c0.35,0.59,0.609,1.217,0.765,1.887
		c0.064,0.278,0.012,0.51-0.162,0.726c-0.043,0.054-0.091,0.113-0.111,0.179c-0.062,0.204-0.122,0.41-0.166,0.62
		c-0.04,0.196-0.054,0.399-0.087,0.597c-0.094,0.546-0.333,1.031-0.625,1.494c-0.146,0.23-0.351,0.4-0.581,0.537
		c-0.208,0.125-0.436,0.186-0.668,0.087c-0.134-0.057-0.257-0.15-0.367-0.247c-0.122-0.105-0.225-0.232-0.351-0.365
		c-1.949,3.241-4.601,5.715-7.983,7.429c0.219,0.301,0.296,0.635,0.342,0.976c0.057,0.412-0.151,0.717-0.501,0.811
		c-0.169,0.045-0.338,0.094-0.509,0.132c-0.533,0.121-1.071,0.137-1.606,0.037c-0.515-0.097-1.04-0.186-1.43-0.574
		c-0.049,0.011-0.082,0.016-0.112,0.024c-1.034,0.263-2.085,0.435-3.147,0.519c-0.921,0.073-1.842,0.077-2.765,0.02
		c-0.811-0.05-1.615-0.153-2.413-0.306c-0.862-0.165-1.708-0.392-2.54-0.672c-0.054-0.019-0.112-0.073-0.178-0.019
		c0.071,0.22,0.149,0.433,0.209,0.652c0.061,0.224,0.106,0.453,0.16,0.69c0.201,0.236,0.415,0.487,0.629,0.738
		c0.361,0.425,0.663,0.876,0.767,1.442c0.068,0.374-0.069,0.736-0.456,0.881c-0.335,0.126-0.683,0.209-1.039,0.248
		c-0.686,0.073-1.346-0.058-1.99-0.278c-0.151-0.051-0.299-0.13-0.427-0.225c-0.192-0.142-0.261-0.36-0.227-0.588
		c0.046-0.311,0.149-0.608,0.347-0.858c0.11-0.138,0.145-0.298,0.184-0.452c-0.019-0.019-0.026-0.034-0.037-0.037
		c-0.353-0.073-0.509-0.315-0.591-0.645c-0.079-0.319-0.117-0.637-0.102-0.964c0.014-0.282-0.018-0.561-0.125-0.823
		c-0.159-0.391-0.334-0.774-0.498-1.162c-0.059-0.139-0.158-0.228-0.285-0.305c-1.735-1.042-3.267-2.327-4.596-3.853
		c-0.848-0.973-1.588-2.022-2.226-3.143c-0.036-0.062-0.049-0.147-0.139-0.173c-0.009,0.025-0.017,0.043-0.022,0.061
		c-0.011,0.037-0.023,0.075-0.031,0.113c-0.107,0.52-0.379,0.951-0.745,1.322c-0.431,0.437-0.951,0.712-1.559,0.828
		c-0.32,0.06-0.566-0.025-0.754-0.283c-0.026-0.035-0.055-0.067-0.081-0.098c-0.017,0.006-0.024,0.008-0.029,0.012
		c-0.049,0.031-0.099,0.063-0.149,0.092c-0.67,0.383-1.382,0.596-2.161,0.504c-0.348-0.041-0.69-0.127-1.011-0.275
		c-0.088-0.04-0.176-0.088-0.25-0.149c-0.207-0.173-0.279-0.398-0.228-0.662c0.051-0.268,0.212-0.435,0.478-0.502
		c0.176-0.045,0.351-0.092,0.523-0.15c0.188-0.064,0.32-0.196,0.389-0.384c0.088-0.236,0.085-0.479,0.08-0.723
		c-0.11-0.013-0.2-0.018-0.289-0.035c-0.294-0.056-0.588-0.114-0.829-0.314c-0.211-0.177-0.303-0.397-0.251-0.671
		c0.051-0.268,0.205-0.442,0.475-0.505c0.228-0.052,0.382-0.186,0.454-0.409c0.037-0.103,0.079-0.208,0.092-0.316
		c0.043-0.374,0.082-0.749,0.111-1.125c0.033-0.414,0.072-0.827,0.18-1.231c0.033-0.123,0.06-0.248,0.09-0.369
		c-0.412-0.202-0.804-0.403-0.841-0.924c0.009-0.04,0.02-0.085,0.029-0.129c0.058-0.268,0.22-0.435,0.489-0.49
		c0.108-0.022,0.218-0.041,0.327-0.041c0.34,0.003,0.591-0.155,0.752-0.439c0.244-0.434,0.467-0.88,0.704-1.332
		c-0.2-0.22-0.325-0.479-0.351-0.803c0.007-0.035,0.018-0.092,0.033-0.148c0.061-0.249,0.214-0.4,0.465-0.469
		c0.17-0.048,0.323-0.009,0.479,0.03c0.221,0.053,0.412,0.004,0.576-0.15c0.192-0.182,0.384-0.367,0.551-0.527
		c0.08-0.607,0.137-1.182,0.236-1.75c0.097-0.562,0.219-1.122,0.361-1.674c0.143-0.555,0.324-1.102,0.49-1.661
		c-0.08-0.029-0.146-0.052-0.212-0.078c-0.97-0.364-1.739-0.971-2.28-1.862c-0.131-0.214-0.224-0.438-0.205-0.706
		c-0.066-0.031-0.13-0.06-0.194-0.089c-0.644-0.294-1.227-0.679-1.715-1.197c-0.358-0.382-0.651-0.809-0.849-1.296
		c-0.082-0.201-0.126-0.404-0.057-0.625c0.054-0.174,0.177-0.281,0.322-0.4c-0.228-0.174-0.446-0.34-0.683-0.521
		c-0.053,0.096-0.102,0.179-0.147,0.262c-2.109,3.899-3.198,8.069-3.301,12.498c-0.025,1.105,0.029,2.208,0.136,3.308
		c0.113,1.158,0.297,2.305,0.565,3.437c1.263,5.319,3.853,9.892,7.831,13.64c5.092,4.797,11.167,7.28,18.158,7.507
		c1.653,0.053,3.296-0.071,4.93-0.328c1.964-0.309,3.871-0.826,5.722-1.553c9.943-3.91,17.097-13.502,17.341-24.904
		C56.126,27.691,56.088,26.725,56.008,25.759z M37.013,52.868h0.094c-0.03,0.014-0.059,0.029-0.09,0.042
		C37.016,52.897,37.014,52.883,37.013,52.868z"/>
</g>
</svg>
